<svg width="203" height="210" viewBox="0 0 203 210" fill="none" xmlns="http://www.w3.org/2000/svg">
<g clip-path="url(#clip0_2001_1298)">
<mask id="mask0_2001_1298" style="mask-type:luminance" maskUnits="userSpaceOnUse" x="0" y="0" width="203" height="210">
<path d="M203 0.410156H0V209.41H203V0.410156Z" fill="white"/>
</mask>
<g mask="url(#mask0_2001_1298)">
<path d="M187.554 133.007C157.842 188.58 95.2298 221.052 47.6995 205.537C0.175533 190.021 -14.2662 132.387 15.4457 76.8142C45.1513 21.2417 107.77 -11.2304 155.294 4.28478C202.824 19.7999 217.266 77.4285 187.554 133.007Z" fill="#FBBF49"/>
<path d="M149.2 120.482C126.856 162.269 82.2444 187.495 49.5512 176.825C16.8581 166.15 8.46673 123.623 30.8103 81.8351C53.1538 40.0413 97.7656 14.8159 130.459 25.4916C163.152 36.1673 171.543 78.6944 149.2 120.482Z" fill="#67EB93"/>
<mask id="mask1_2001_1298" style="mask-type:luminance" maskUnits="userSpaceOnUse" x="18" y="23" width="144" height="157">
<path d="M149.2 120.482C126.856 162.269 82.2444 187.495 49.5512 176.825C16.8581 166.15 8.46673 123.623 30.8103 81.8351C53.1538 40.0413 97.7656 14.8159 130.459 25.4916C163.152 36.1673 171.543 78.6944 149.2 120.482Z" fill="white"/>
</mask>
<g mask="url(#mask1_2001_1298)">
<path d="M165.43 125.779C143.087 167.566 98.4749 192.792 65.7817 182.122C33.0886 171.447 24.6972 128.919 47.0407 87.1319C69.378 45.3382 113.996 20.1128 146.689 30.7885C179.382 41.4641 187.774 83.9913 165.43 125.779Z" fill="#F5F1E4"/>
</g>
<path d="M43.8836 127.429L114.793 111.306L112.917 103.759L111.04 96.2109L42.6911 122.627C39.327 123.925 40.3939 128.225 43.8836 127.429Z" fill="#FF7E52"/>
<path d="M132.875 84.4878L131.438 54.8555L103.452 74.8841L113.073 78.0248L90.5601 112.609L107.588 118.17L123.254 81.3472L132.875 84.4878Z" fill="#769FF3"/>
<path d="M105.988 107.632C105.335 108.854 103.747 109.5 102.448 109.08C101.149 108.66 100.628 107.318 101.28 106.096C101.933 104.873 103.521 104.228 104.82 104.648C106.119 105.068 106.64 106.409 105.988 107.632Z" fill="#FBBF49"/>
<path d="M79.3632 192.757C88.6018 189.993 97.5016 186.169 105.893 181.417C116.406 175.462 126.097 168.096 134.884 159.815C141.047 154.004 146.771 147.735 152.093 141.153C152.658 140.451 151.666 139.448 151.095 140.156C142.233 151.108 132.254 161.219 121.019 169.745C112.578 176.151 103.446 181.662 93.7547 185.956C88.9596 188.081 84.0202 189.892 78.9929 191.391C78.1267 191.648 78.497 193.014 79.3694 192.751L79.3632 192.757Z" fill="#2C2E2A"/>
<path d="M157.648 30.714C164.037 36.0174 168.675 43.1199 170.74 51.1752C170.966 52.0528 172.328 51.683 172.102 50.7991C169.98 42.5306 165.211 35.1648 158.646 29.7173C157.949 29.1405 156.945 30.131 157.648 30.714Z" fill="#2C2E2A"/>
</g>
</g>
<defs>
<clipPath id="clip0_2001_1298">
<rect width="203" height="210" fill="white"/>
</clipPath>
</defs>
</svg>
