<svg width="256" height="215" viewBox="0 0 256 215" fill="none" xmlns="http://www.w3.org/2000/svg">
<g clip-path="url(#clip0_2001_1287)">
<path d="M225.162 124.789C211.58 96.9332 207.768 76.1626 203.688 48.4482C203.014 43.8841 198.274 41.2961 194.234 42.6472L104.661 72.6605L102.978 67.162C102.352 65.1118 100.318 63.9489 98.4325 64.5673L48.1315 81.0359C46.246 81.6544 45.2292 83.8121 45.8555 85.8623L47.6601 91.7641C43.1418 93.2765 38.6234 94.7889 34.1118 96.3081C30.5295 97.5113 28.4487 101.484 29.3376 105.477C32.5967 120.117 39.0881 140.874 52.5892 162.519C66.9388 185.528 83.6385 200.612 96.0421 209.807C101.2 213.632 107.624 214.781 113.503 212.913C160.895 197.809 208.287 182.698 255.686 167.594C244.03 157.497 233.269 141.392 225.175 124.795L225.162 124.789Z" fill="#769FF3"/>
<path d="M219.855 124.976C224.912 115.236 234.036 94.4184 233.134 66.8788C232.016 32.6308 216.078 8.82858 209.62 0.164062C174.901 4.08965 140.182 8.0085 105.462 11.9341C112.331 19.8995 120.849 32.0594 125.738 48.3331C138.236 89.9752 116.957 125.339 111.678 133.594C147.737 130.723 183.796 127.853 219.855 124.976Z" fill="white"/>
<path d="M255.699 167.505C238.259 161.361 216.751 151.944 193.708 137.229C177.076 126.609 163.13 115.457 151.757 105.153C148.733 102.41 144.707 101.395 140.963 102.417C95.9544 114.731 50.9461 127.053 5.94452 139.367C0.85381 140.758 -1.09898 147.38 2.27463 151.876C11.9914 164.83 27.3915 181.695 49.8216 195.3C65.39 204.744 80.1234 210.054 92.0758 213.106C99.7455 215.069 107.698 214.793 115.139 212.414C161.992 197.444 208.846 182.468 255.706 167.498L255.699 167.505Z" fill="#769FF3"/>
<path d="M255.18 166.519C240.763 161.437 226.777 155.206 213.337 147.926C197.371 139.275 182.159 129.213 167.944 117.913C164.793 115.406 161.689 112.838 158.632 110.217C157.177 108.973 155.743 107.709 154.309 106.439C152.874 105.168 151.568 103.838 149.925 102.903C148.282 101.969 146.45 101.418 144.572 101.297C142.572 101.169 140.727 101.7 138.821 102.218C134.559 103.387 130.296 104.55 126.034 105.72C112.607 109.396 99.1726 113.073 85.7455 116.744C71.5911 120.615 57.4436 124.487 43.2892 128.359C41.094 128.957 38.8988 129.562 36.7036 130.16C35.7676 130.416 36.1649 131.874 37.1076 131.619C51.8815 127.579 66.6553 123.533 81.4291 119.493C94.3714 115.95 107.307 112.408 120.249 108.872C124.222 107.783 128.202 106.694 132.175 105.612C134.417 105 136.666 104.382 138.909 103.77C140.882 103.233 142.76 102.648 144.834 102.836C146.807 103.011 148.706 103.784 150.302 104.947C151.804 106.036 153.137 107.427 154.531 108.65C157.48 111.252 160.484 113.799 163.527 116.286C177.372 127.606 192.173 137.756 207.741 146.562C221.343 154.258 235.545 160.893 250.204 166.331C251.726 166.896 253.248 167.447 254.783 167.984C255.705 168.307 256.103 166.849 255.187 166.526L255.18 166.519Z" fill="#2C2E2A"/>
</g>
<defs>
<clipPath id="clip0_2001_1287">
<rect width="256" height="215" fill="white"/>
</clipPath>
</defs>
</svg>
