<svg width="194" height="434" viewBox="0 0 194 434" fill="none" xmlns="http://www.w3.org/2000/svg">
<path d="M161.4 404.398C166.8 396.598 169.1 383.298 162.8 376.198C152.5 364.498 127.3 379.098 118.9 368.198C112.7 360.298 124.4 350.098 118.9 336.198C112.9 320.698 95.1999 325.398 83.5999 309.298C69.0999 289.098 83.9999 263.898 69.2999 253.998C63.9999 250.498 57.9999 250.898 54.4999 251.998C38.6999 256.698 31.7999 287.098 42.1999 300.898C47.3999 307.698 52.3999 304.498 58.9999 310.698C76.1999 326.898 56.4999 362.398 71.4999 374.098C78.8999 379.798 85.2999 372.598 95.8999 379.098C109.5 387.398 104.6 402.498 117 411.198C128.9 419.498 151.6 418.498 161.3 404.498L161.4 404.398Z" fill="white"/>
<path d="M93.2001 84.0008C86.7001 69.6008 77.0001 59.9008 71.4001 62.4008C71.0001 62.6008 70.6001 62.8008 70.3001 63.1008C68.8001 64.4008 66.3001 63.6008 65.6001 61.7008C64.9001 59.8008 64.1001 57.8008 63.2001 55.9008C55.7001 39.1008 44.3001 27.9008 37.9001 30.8008C31.4001 33.7008 32.2001 49.7008 39.8001 66.4008C47.3001 83.2008 58.7001 94.4008 65.1001 91.5008C65.9001 91.1008 66.6001 90.5008 67.2001 89.8008C68.5001 88.1008 71.0001 88.4008 71.8001 90.3008C72.2001 91.2008 72.5001 92.1008 73.0001 93.0008C79.5001 107.401 89.2001 117.101 94.8001 114.601C100.4 112.101 99.7001 98.4008 93.2001 84.0008Z" fill="#769FF3"/>
</svg>
