<svg width="971" height="540" viewBox="0 0 971 540" fill="none" xmlns="http://www.w3.org/2000/svg">
<g clip-path="url(#clip0_2001_1319)">
<path d="M761.646 97.7453C771.774 79.3112 769.399 70.8662 776.819 66.6336C782.316 63.4992 787.393 65.9815 791.992 61.15C792.904 60.1917 794.488 58.2218 797.422 56.7045C800.184 55.2737 802.527 55.0674 803.299 54.9277C811.391 53.4436 810.08 28.8471 823.011 16.3624C829.559 10.0403 841.332 5.29532 850.682 8.14363C858.049 10.3863 860.365 16.2759 868.763 16.2227C872.144 16.2027 875.405 15.2311 880.888 16.3891C885.201 17.3008 885.221 18.339 887.57 18.6584C896.947 19.9561 901.086 4.03089 916.159 0.663507C918.362 0.171043 922.002 -0.594271 926.029 0.769985C937.315 4.60321 939.738 21.1473 939.964 22.831C942.413 20.0958 944.376 19.63 945.621 19.6433C951.324 19.6832 957.114 29.832 959.782 45.3046C961.426 43.5344 962.877 42.7691 964.135 43.0154C968.494 43.8605 970.49 56.8642 970.131 82.0198C967.276 70.1341 962.211 62.4011 956.754 57.1637C925.223 26.9038 845.404 46.4892 757.686 104.394C758.631 102.936 760.068 100.64 761.659 97.7453H761.646Z" fill="white"/>
<path d="M5.9936 409.76C6.67906 406.1 7.80374 402.813 9.24786 399.844C29.7783 357.839 122.668 367.561 133.488 368.799C129.708 367.888 123.746 366.004 117.65 361.785C106.682 354.192 103.575 344.775 96.8265 345.041C94.7102 345.121 91.4427 346.186 87.5495 351.749C85.7461 350.984 83.0641 350.192 80.2158 350.924C76.2295 351.949 75.9035 354.924 73.5143 355.45C67.2654 356.827 62.973 337.827 49.5234 333.948C42.9816 332.064 37.2318 334.606 36.1736 335.079C26.6105 339.318 20.9139 351.57 21.9188 365.931C20.4813 366.583 18.059 367.894 15.8096 370.383C13.5403 372.885 12.4688 375.441 11.9631 376.945C7.56416 377.344 5.20832 379.028 4.04372 380.113C-1.72609 385.483 -1.5331 397.755 5.9936 409.754V409.76Z" fill="white"/>
<path d="M744.01 134.256C740.091 125.285 714.715 124.64 710.722 132.686C708.233 137.703 715.767 142.675 713.345 147.885C709.179 156.83 683.125 150.448 680.316 158.367C679.092 161.827 683.684 164.103 682.412 167.804C679.704 175.676 656.711 171.65 654.329 179.483C653.637 181.759 655.034 183.902 655.24 184.215C658.807 189.678 670.76 187.063 673.761 186.411C678.672 185.339 684.928 183.968 688.741 178.758C692.342 173.833 689.999 170.619 693.473 167.284C696.874 164.024 700.114 166.14 710.21 163.964C715.92 162.732 723.899 161.009 726.062 155.638C727.326 152.491 725.29 151.346 726.608 148.717C729.556 142.848 741.069 145.975 744.01 140.159C745.368 137.477 744.103 134.462 744.01 134.256Z" fill="#FBBF49"/>
<path d="M187.533 340.723C179.667 340.723 173.291 343.192 173.291 346.233C173.291 346.453 173.325 346.665 173.384 346.872C173.677 347.843 172.819 348.795 171.801 348.715C170.782 348.635 169.738 348.602 168.666 348.602C159.509 348.602 152.089 351.477 152.089 355.017C152.089 358.558 159.509 361.433 168.666 361.433C177.823 361.433 185.244 358.558 185.244 355.017C185.244 354.565 185.124 354.119 184.891 353.693C184.392 352.775 185.011 351.67 186.055 351.717C186.541 351.737 187.034 351.75 187.533 351.75C195.399 351.75 201.774 349.281 201.774 346.24C201.774 343.198 195.399 340.729 187.533 340.729V340.723Z" fill="#FF7E52"/>
<path d="M961.147 169.045C966.123 169.045 970.157 165.011 970.157 160.034C970.157 155.058 966.123 151.023 961.147 151.023C956.17 151.023 952.136 155.058 952.136 160.034C952.136 165.011 956.17 169.045 961.147 169.045Z" fill="#769FF3"/>
<path d="M640.852 151.537C644.167 151.537 646.855 148.849 646.855 145.534C646.855 142.219 644.167 139.531 640.852 139.531C637.537 139.531 634.849 142.219 634.849 145.534C634.849 148.849 637.537 151.537 640.852 151.537Z" fill="#769FF3"/>
<path d="M75.2372 539.679C79.0156 539.679 82.0785 536.616 82.0785 532.837C82.0785 529.059 79.0156 525.996 75.2372 525.996C71.4589 525.996 68.396 529.059 68.396 532.837C68.396 536.616 71.4589 539.679 75.2372 539.679Z" fill="#FBBF49"/>
<path d="M42.7884 480.762C44.468 480.762 45.8297 479.401 45.8297 477.721C45.8297 476.041 44.468 474.68 42.7884 474.68C41.1087 474.68 39.7471 476.041 39.7471 477.721C39.7471 479.401 41.1087 480.762 42.7884 480.762Z" fill="black"/>
</g>
<defs>
<clipPath id="clip0_2001_1319">
<rect width="971" height="540" fill="white"/>
</clipPath>
</defs>
</svg>
