<svg width="154" height="192" viewBox="0 0 154 192" fill="none" xmlns="http://www.w3.org/2000/svg">
<g clip-path="url(#clip0_2001_1249)">
<mask id="mask0_2001_1249" style="mask-type:luminance" maskUnits="userSpaceOnUse" x="0" y="0" width="154" height="193">
<path d="M153.18 0.0078125H0.00488281V192.008H153.18V0.0078125Z" fill="white"/>
</mask>
<g mask="url(#mask0_2001_1249)">
<path d="M108.316 63.2252C110.463 58.8775 112.616 54.514 114.79 50.1347C116.334 47.0209 117.526 43.8861 118.124 40.557C119.358 33.7151 117.899 26.7681 112.758 22.7669C108.221 19.3065 101.726 18.0831 95.451 19.2908C90.5729 20.2254 86.0938 22.6409 82.623 26.285C80.5961 28.4064 78.9631 30.9058 78.2594 33.5785C77.435 36.7133 77.8761 39.9006 79.3096 42.5576C80.8061 45.3616 83.4053 47.483 86.6504 48.3179C89.8587 49.1528 93.6604 48.8902 96.853 47.1627C101.81 44.4689 103.133 39.008 103.616 34.1929C104.183 28.5586 103.789 22.8456 105.538 17.1956C106.898 12.8164 109.807 9.09352 114.176 6.85138C119.516 4.09465 125.639 3.70083 131.073 3.80059C133.247 3.8426 135.395 4.00538 137.516 4.23117C138.383 4.32569 138.897 2.94995 138.025 2.86068C131.619 2.18856 124.709 1.96277 117.988 3.97913C114.202 5.10807 110.5 7.10868 107.859 10.2067C103.963 14.775 103.144 20.5142 102.781 25.7337C102.592 28.4326 102.529 31.1263 102.282 33.8306C102.062 36.2565 101.71 38.7507 100.697 41.1031C99.7357 43.34 98.0659 45.1726 95.8238 46.2648C92.6102 47.819 88.6563 47.8138 85.6842 46.5641C79.8715 44.1539 77.4981 37.0126 80.6381 31.0948C82.6282 27.3509 86.3144 24.0376 90.3366 22.2155C96.1546 19.5586 102.886 19.5796 108.106 21.7535C110.689 22.8456 112.989 24.5049 114.543 26.7733C116.36 29.4513 117.195 32.7489 117.174 36.183C117.153 39.4228 116.476 42.7361 115.278 45.9129C114.664 47.546 113.871 49.1055 113.094 50.6755C112.081 52.7234 111.067 54.7713 110.059 56.8086C109.051 58.846 108.048 60.8781 107.05 62.9102C106.651 63.7188 107.922 64.0339 108.316 63.2305V63.2252Z" fill="#2C2E2A"/>
<path d="M152.707 121.258C150.029 99.8916 136.088 82.6844 117.379 72.5081C115.62 71.5839 114.948 69.3995 115.84 67.3988C117.804 63.0038 116.512 58.0785 112.606 56.1304C107.932 53.8357 101.873 56.4664 99.6571 61.4653L99.5574 61.6911C98.6857 63.6602 96.5328 64.8049 94.5375 64.3901C73.035 60.0686 49.9309 62.778 32.5766 74.1568C11.6937 87.4941 -5.3823 116.427 1.59093 129.465C4.50519 135.083 10.759 136.89 11.032 136.968C18.9399 139.163 28.7224 133.912 36.1157 123.39C41.7027 130.247 50.6923 132.867 58.952 129.901C66.2823 127.228 70.4305 121.074 72.5466 116.705C75.3244 118.517 78.6272 120.386 82.4866 122.045C86.3355 123.715 89.9534 124.823 93.1827 125.584C91.4132 130.242 89.7171 137.662 92.6419 145.123C95.9132 153.687 103.674 158.881 112.375 158.156C109.266 172.155 111.503 184.363 118.014 189.378C118.24 189.556 123.412 193.484 129.43 191.405C143.691 186.348 155.758 147.859 152.702 121.263L152.707 121.258Z" fill="#769FF3"/>
<path d="M61.5195 112.947C59.1356 118.55 52.7032 121.202 47.1109 118.918C41.4977 116.665 38.7725 110.448 41.0671 104.971C43.3828 99.4681 49.9097 96.6798 55.6122 98.8012C61.2937 100.954 63.9244 107.308 61.5195 112.942V112.947Z" fill="#2C2E2A"/>
<path d="M121.648 139.435C118.996 145.432 112.522 148.131 107.161 145.521C101.773 142.937 99.4575 136.137 102.02 130.267C104.603 124.37 111.172 121.535 116.644 123.982C122.099 126.465 124.321 133.402 121.648 139.43V139.435Z" fill="#2C2E2A"/>
<path d="M107.974 91.0627C105.328 97.0435 98.6594 100.037 93.0356 97.7996C87.3909 95.5942 84.8547 89.0988 87.4119 83.2493C89.9901 77.3683 96.7533 74.2387 102.487 76.3128C108.2 78.4185 110.642 85.0504 107.974 91.0627Z" fill="#2C2E2A"/>
<path d="M107.974 91.0627C105.328 97.0435 98.6594 100.037 93.0356 97.7996C87.3909 95.5942 84.8547 89.0988 87.4119 83.2493C89.9901 77.3683 96.7533 74.2387 102.487 76.3128C108.2 78.4185 110.642 85.0504 107.974 91.0627Z" fill="#F5F1E4"/>
<path d="M103.506 89.3239C102.025 92.6845 98.255 94.3858 95.0729 93.1465C91.8856 91.9126 90.4678 88.2422 91.9224 84.9236C93.3821 81.5945 97.1838 79.8512 100.403 81.0432C103.611 82.2456 104.997 85.9633 103.511 89.3291L103.506 89.3239Z" fill="#67EB93"/>
<path d="M142.499 7.34686L135.221 6.68524C134.024 6.58023 133.315 5.49328 133.651 4.26982L134.266 2.05393C134.607 0.830465 135.867 -0.0884469 137.075 0.0113206L144.39 0.620428C145.592 0.725446 146.29 1.82289 145.944 3.05686L145.314 5.299C144.967 6.53297 143.702 7.45188 142.504 7.34161L142.499 7.34686Z" fill="#2C2E2A"/>
<path d="M36.5829 122.968C35.559 121.608 34.7504 120.059 34.2095 118.499C34.0993 118.179 33.7895 117.953 33.4324 118.037C33.1173 118.105 32.8495 118.457 32.9598 118.778C33.5847 120.579 34.4826 122.259 35.6483 123.803C35.8531 124.076 36.3204 124.055 36.5514 123.845C36.8297 123.598 36.7877 123.241 36.5829 122.968Z" fill="#2C2E2A"/>
<path d="M112.48 158.826C115.499 158.6 118.471 157.629 121.154 155.969C121.868 155.528 121.364 154.273 120.645 154.72C118.04 156.332 115.2 157.25 112.27 157.471C111.934 157.497 111.703 157.944 111.755 158.274C111.818 158.673 112.133 158.847 112.474 158.821L112.48 158.826Z" fill="#2C2E2A"/>
<path d="M40.1221 77.1528C40.6315 78.8121 45.8141 78.6966 51.7162 76.8693C57.6392 75.0157 62.0657 72.1172 61.5879 70.4159C61.1048 68.7199 55.8802 68.8984 49.9256 70.794C43.9921 72.6633 39.6075 75.4988 40.1169 77.1528H40.1221Z" fill="#F5F1E4"/>
<path d="M33.1491 81.084C33.6637 81.8717 35.0342 81.9557 36.2156 81.2626C37.3971 80.5694 37.9379 79.3617 37.4233 78.5688C36.9087 77.7759 35.533 77.7024 34.3515 78.4008C33.1701 79.0939 32.6345 80.2964 33.1491 81.084Z" fill="#F5F1E4"/>
<path d="M93.9441 125.217C93.9966 125.101 93.9231 125.254 93.9598 125.185C93.9808 125.138 94.0071 125.096 94.0281 125.049C94.0701 124.97 94.1121 124.891 94.1594 124.812C94.2486 124.655 94.3431 124.497 94.4377 124.345C94.6424 124.025 94.8682 123.715 95.1098 123.421C95.115 123.41 95.1938 123.316 95.1518 123.368C95.0993 123.431 95.2043 123.311 95.2148 123.295C95.2726 123.227 95.3356 123.158 95.3986 123.095C95.5298 122.959 95.6611 122.822 95.7976 122.691C96.0707 122.429 96.3647 122.187 96.6693 121.961C96.9476 121.751 96.9634 121.252 96.7481 121.016C96.4908 120.738 96.139 120.753 95.8396 120.979C94.5112 121.966 93.4662 123.3 92.7469 124.807C92.5946 125.128 92.8256 125.558 93.1302 125.647C93.4925 125.752 93.7918 125.558 93.9546 125.217H93.9441Z" fill="#2C2E2A"/>
<path d="M73.1455 116.58C73.8544 115.273 74.2797 113.839 74.369 112.364C74.39 112.022 74.1169 111.686 73.7651 111.691C73.4133 111.691 73.0983 111.959 73.0773 112.322C73.0037 113.561 72.6624 114.805 72.0796 115.882C71.9168 116.181 71.9378 116.596 72.2529 116.78C72.5312 116.942 72.9722 116.9 73.1455 116.58Z" fill="#2C2E2A"/>
</g>
</g>
<defs>
<clipPath id="clip0_2001_1249">
<rect width="154" height="192" fill="white"/>
</clipPath>
</defs>
</svg>
