<svg width="157" height="179" viewBox="0 0 157 179" fill="none" xmlns="http://www.w3.org/2000/svg">
<mask id="mask0_2001_1328" style="mask-type:luminance" maskUnits="userSpaceOnUse" x="0" y="0" width="157" height="179">
<path d="M0.000275373 45.4888L89.0552 0L156.783 132.594L67.7285 178.083L0.000275373 45.4888Z" fill="white"/>
</mask>
<g mask="url(#mask0_2001_1328)">
<path d="M22.3132 79.1597C23.0838 78.1239 24.2188 77.6818 24.7043 77.4949C30.6529 75.2363 37.8218 82.4762 38.7557 83.4364C29.8611 52.5679 35.6287 27.1455 49.8025 20.0508C55.7933 17.0519 63.1012 17.4245 68.5637 19.9017C85.1102 27.4203 91.9532 57.6548 83.9173 95.1301C85.4196 93.1472 93.7685 82.5066 107.826 81.3353C122.981 80.0692 136.253 90.5299 141.619 103.086C146.808 115.221 144.463 128.964 137.444 138.482C126.76 152.976 107.057 155.174 94.9942 152.108C75.6872 147.207 60.0938 124.821 57.0011 94.4755C56.9815 95.38 56.6847 104.063 50.4873 107.481C47.2901 109.244 44.0039 108.797 42.6594 108.59C28.7781 106.499 17.8462 85.1569 22.3193 79.1566L22.3132 79.1597Z" fill="#EBC1FF"/>
<path d="M55.9993 94.7874C54.0973 80.7517 53.2051 66.5825 53.3787 52.4193C53.4282 48.2657 53.5752 44.1082 53.8044 39.9621C53.8599 38.9782 55.3861 39.0625 55.3337 40.0525C54.5376 54.4037 54.8136 68.8036 56.182 83.1118C56.5497 86.9147 56.9872 90.7049 57.4978 94.4883C57.628 95.4615 56.1296 95.7759 55.9963 94.7966L55.9993 94.7874Z" fill="#2C2E2A"/>
<path d="M84.437 95.6985C81.5801 98.7862 79.171 102.257 77.2514 105.997C76.7992 106.878 75.5162 106.043 75.9594 105.174C77.9388 101.312 80.4537 97.7485 83.4012 94.5687C84.0709 93.8443 85.1007 94.9773 84.437 95.6985Z" fill="#2C2E2A"/>
<path d="M39.5096 83.2811C40.3277 86.0053 41.149 88.7356 41.9732 91.4567C42.0923 91.8545 41.755 92.2868 41.3811 92.363C40.9465 92.4551 40.5999 92.1658 40.4747 91.771C39.6566 89.0468 38.8354 86.3165 38.0112 83.5954C37.892 83.1976 38.2294 82.7653 38.6032 82.689C39.0378 82.597 39.3844 82.8863 39.5096 83.2811Z" fill="#2C2E2A"/>
<path d="M116.863 89.8686C112.03 88.2934 107.817 88.4118 107.448 90.1445C107.079 91.8771 110.701 94.5529 115.529 96.1312C120.362 97.7065 124.575 97.588 124.944 95.8554C125.313 94.1227 121.691 91.447 116.863 89.8686Z" fill="white"/>
</g>
</svg>
