<svg width="141" height="172" viewBox="0 0 141 172" fill="none" xmlns="http://www.w3.org/2000/svg">
<mask id="mask0_2001_1268" style="mask-type:luminance" maskUnits="userSpaceOnUse" x="0" y="0" width="141" height="172">
<path d="M140.365 29.6683L44.8672 0L0.694018 142.186L96.1916 171.855L140.365 29.6683Z" fill="white"/>
</mask>
<g mask="url(#mask0_2001_1268)">
<path d="M124.108 66.647C123.172 65.7575 121.979 65.5149 121.468 65.4134C115.222 64.2001 109.39 72.5546 108.633 73.6598C112.144 41.7278 102.134 17.6579 86.9595 13.079C80.5457 11.1435 73.4078 12.7544 68.4467 16.1252C53.4212 26.3502 51.8238 57.3083 66.1206 92.8691C64.3027 91.1708 54.2647 82.1065 40.2132 83.3447C25.0633 84.6765 13.7661 97.2433 10.615 110.53C7.56672 123.371 12.2167 136.515 20.7529 144.699C33.7485 157.164 53.5378 155.976 64.9027 150.901C83.0939 142.786 94.6499 118.073 92.5327 87.6431C92.706 88.531 94.4764 97.0373 101.165 99.3505C104.616 100.544 107.778 99.5442 109.067 99.1107C122.39 94.6875 129.53 71.7964 124.101 66.645L124.108 66.647Z" fill="#FF7E52"/>
<path d="M93.5736 87.7822C93.0589 73.6276 91.5266 59.5132 88.945 45.5862C88.1893 41.5016 87.3369 37.4298 86.4053 33.3833C86.1832 32.4231 84.6936 32.7659 84.9137 33.7326C88.1408 47.7389 90.3195 61.9757 91.4063 76.3081C91.6913 80.1181 91.9052 83.9274 92.046 87.7425C92.0833 88.7237 93.6134 88.7784 93.578 87.7907L93.5736 87.7822Z" fill="#2C2E2A"/>
<path d="M65.7053 93.5189C69.0461 96.0754 72.0107 99.0853 74.5389 102.444C75.1344 103.235 76.2565 102.194 75.6719 101.413C73.0639 97.9439 69.9794 94.861 66.5337 92.2293C65.7505 91.6295 64.9285 92.9212 65.7053 93.5189Z" fill="#2C2E2A"/>
<path d="M107.864 73.6366C107.521 76.4604 107.177 79.2906 106.828 82.1122C106.778 82.5246 107.184 82.8931 107.565 82.9046C108.009 82.9214 108.301 82.5773 108.358 82.167C108.7 79.3433 109.045 76.513 109.394 73.6914C109.443 73.279 109.038 72.9105 108.656 72.899C108.212 72.8822 107.92 73.2263 107.864 73.6366Z" fill="#2C2E2A"/>
<path d="M32.7598 93.29C37.2548 90.9151 41.4265 90.3148 42.0848 91.9594C42.7431 93.604 39.6293 96.8571 35.1408 99.2341C30.6459 101.609 26.4741 102.209 25.8158 100.565C25.1576 98.9201 28.2714 95.667 32.7598 93.29Z" fill="white"/>
</g>
</svg>
