<svg width="213" height="167" viewBox="0 0 213 167" fill="none" xmlns="http://www.w3.org/2000/svg">
<path d="M202.244 93.2224C195.858 104.821 177.896 134.705 159.185 133.2C136.921 131.408 116.3 85.3933 116.989 15.3086C83.9111 17.9277 50.8385 20.5544 17.7603 23.1735C24.6997 95.2554 42.8298 144.528 65.8471 146.738C71.1111 147.244 86.7339 146.261 108.906 106.76L202.245 93.2157L202.244 93.2224Z" fill="white"/>
<path d="M69.3003 146.58C100.627 142.076 131.953 137.578 163.281 133.074C154.841 122.896 146.399 112.725 137.959 102.547L108.912 106.766C95.7103 120.038 82.5086 133.309 69.3003 146.58Z" fill="white"/>
<path d="M65.7308 147.488C69.5652 147.853 73.3612 146.846 76.7856 145.161C84.4843 141.366 90.6453 134.754 95.866 128.097C101.035 121.507 105.499 114.372 109.599 107.078L108.992 107.521C115.428 106.584 121.863 105.654 128.299 104.717C129.219 104.582 130.139 104.453 131.06 104.317C131.98 104.182 131.854 102.672 130.885 102.814C126.193 103.492 121.5 104.176 116.815 104.855C114.41 105.201 112.011 105.549 109.605 105.902C109.382 105.936 109.147 105.954 108.929 106.001C108.245 106.146 108.055 106.756 107.727 107.331C106.195 110.032 104.615 112.697 102.959 115.324C98.2182 122.838 92.9233 130.19 86.4548 136.326C82.8414 139.75 78.7457 142.902 74.0684 144.711C72.5747 145.288 71.2482 145.666 69.7008 145.888C69.1017 145.972 68.5067 146.029 67.9037 146.051C67.6502 146.059 67.3912 146.059 67.1321 146.06C66.9207 146.061 67.192 146.069 66.9218 146.054C66.8066 146.05 66.6914 146.045 66.5772 146.035C66.3745 146.023 66.1729 146.006 65.9712 145.988C65.0038 145.898 64.7645 147.392 65.7385 147.482L65.7308 147.488Z" fill="#2C2E2A"/>
</svg>
