<svg width="1512" height="215" viewBox="0 0 1512 215" fill="none" xmlns="http://www.w3.org/2000/svg">
<g clip-path="url(#clip0_2001_1294)">
<path d="M1501.6 63.8992C1486.2 64.6992 1474.2 69.8992 1466.4 74.4992C1461.6 77.2992 1455.5 77.0992 1450.9 73.8992C1437.6 64.5992 1408.4 48.7992 1372.6 58.1992C1342.6 66.0992 1325.5 87.1992 1317.3 100.499C1313.7 106.299 1306.7 108.699 1300.3 106.499C1294.4 104.399 1286.7 102.699 1277.9 103.099C1266 103.599 1256.4 107.499 1249.7 111.399C1243.7 114.899 1236 113.399 1231.5 107.999C1214 86.7992 1192.2 71.2992 1169.2 63.2992C1169 59.7992 1168.4 55.6992 1166.9 51.2992C1166.8 50.8992 1166.6 50.4992 1166.5 50.1992C1170.2 51.7992 1175.9 52.3992 1180 49.0992C1180.6 48.5992 1182.9 46.6992 1183.4 43.5992C1184.1 39.5992 1181.6 35.0992 1177 32.4992C1180.4 30.3992 1182 26.7992 1181.3 23.9992C1180.2 20.1992 1174.6 17.3992 1169.2 19.9992C1170.9 14.5992 1169.6 9.4992 1166.3 7.2992C1163.9 5.6992 1161.1 6.0992 1160.4 6.2992C1156 6.9992 1152.3 11.0992 1150.9 16.4992C1148.1 11.8992 1143.1 9.8992 1139.4 11.3992C1136 12.6992 1134.9 16.4992 1134.8 16.7992C1133.7 20.6992 1135.6 25.1992 1139.6 27.8992C1132.9 28.9992 1128.3 32.8992 1128 37.0992C1128 37.4992 1127.8 39.6992 1129.3 41.4992C1131.9 44.4992 1138 44.6992 1144.2 40.9992C1143.9 44.7992 1146 48.1992 1149 49.2992C1150.7 49.8992 1152.6 49.7992 1154.4 48.9992C1154.5 50.5992 1154.5 52.2992 1154.3 54.0992C1154.1 55.8992 1153.7 57.4992 1153.1 58.9992C1140.6 56.5992 1128 56.2992 1115.6 58.4992C1095.6 61.9992 1080 71.1992 1069.2 79.6992C1064.3 83.4992 1057.4 83.7992 1052.3 80.1992C1046.4 76.1992 1037.4 71.9992 1026.1 72.4992C1016.9 72.8992 1009.6 76.1992 1004.2 79.8992C997.5 84.3992 988.5 82.6992 984 76.0992C964.3 46.9992 932 29.0992 897.6 29.1992C875.4 29.1992 857.3 36.7992 843.6 45.5992C843 43.9992 842.3 42.3992 841.4 40.6992C840.8 39.5992 840.2 38.5992 839.6 37.6992C846.5 31.4992 849.2 21.4992 845.6 12.3992L843 5.7992C841.5 1.8992 837.1 -0.000804245 833.2 1.5992C829.3 3.0992 827.4 7.4992 829 11.3992C827.5 7.4992 823.1 5.5992 819.2 7.1992C815.3 8.6992 813.4 13.0992 815 16.9992C813.5 13.0992 809.1 11.1992 805.2 12.7992C801.3 14.2992 799.4 18.6992 801 22.5992L803.6 29.1992C807.3 38.4992 816.3 43.9992 825.8 43.4992C826.6 45.6992 827.2 48.2992 827.4 51.1992C827.6 54.2992 827.2 56.9992 826.6 59.2992C824.9 60.8992 823.4 62.3992 822 63.7992C817.7 68.2992 811 69.5992 805.4 66.7992C798.9 63.5992 789.5 60.6992 778.5 62.5992C767.3 64.4992 757.3 70.7992 750.4 79.8992C745.8 85.8992 737.4 87.3992 731.1 83.2992C727.1 80.6992 722.5 78.9992 717.6 78.5992C713.8 78.1992 709.9 78.5992 706.4 79.6992C698.7 81.9992 690.7 77.3992 688.5 69.6992C684.4 55.2992 674 43.6992 660.6 39.3992C648.7 35.4992 635.4 37.6992 624.3 44.5992C618.9 47.9992 611.9 47.4992 607.1 43.2992C596.2 33.6992 575.8 19.7992 547.4 18.4992C515.8 17.0992 492.4 32.0992 479.2 43.5992C473.2 48.7992 464.1 48.0992 458.9 42.0992C452.5 34.7992 444.1 29.9992 435 29.0992C430.3 28.5992 426.1 29.2992 422.6 30.2992C418.3 31.4992 413.7 30.6992 410.1 27.9992C401.6 21.6992 388.4 14.2992 371.7 13.2992C341.6 11.4992 311.2 30.9992 293.8 63.3992C290.4 69.7992 282.9 72.5992 276.1 70.0992C267.3 66.8992 254.7 63.8992 239.9 65.2992C239.4 63.6992 238.9 61.9992 238.7 60.1992C238.6 59.0992 238.5 57.9992 238.5 56.8992C239.7 57.7992 241.1 58.3992 242.7 58.4992C243.5 58.4992 246.3 58.6992 247.9 56.6992C249.2 55.0992 249.3 52.5992 248.2 50.3992C254.1 52.1992 259.5 50.8992 261.5 47.5992C262.6 45.7992 262.3 43.8992 262.3 43.3992C261.8 39.6992 258 36.4992 252.8 35.5992C257.8 33.2992 260.2 27.9992 258.7 23.8992C257.7 20.9992 254.8 18.6992 251.5 18.4992C247.4 18.1992 243.3 21.3992 242.3 26.1992C240.6 18.3992 236.3 12.9992 231.8 12.7992C231.4 12.7992 229.3 12.7992 227.7 14.1992C224.8 16.6992 224.6 22.4992 227.7 28.5992C220.9 25.0992 214.5 27.1992 213.2 30.3992C212.1 33.0992 214.4 37.5992 219 40.4992C212.8 44.9992 209.5 50.0992 210.7 53.7992C210.7 53.9992 211.1 54.9992 212 55.7992C215.2 58.5992 222.6 55.5992 227.7 52.9992C227 54.4992 226.4 56.0992 225.8 57.7992C224.5 61.7992 223.9 65.4992 223.6 68.7992C216.2 70.9992 209.9 74.0992 204.9 77.0992C198.2 81.0992 189.4 79.0992 185.3 72.3992C179.8 63.4992 173.7 59.1992 169.8 56.9992C144 42.7992 99.4001 58.8992 61.0001 102.099C55.7001 108.099 46.5001 108.499 40.6001 102.999C36.3001 98.9992 30.4001 95.1992 22.9001 93.4992C21.3001 93.0992 19.7001 92.8992 18.2001 92.7992C11.9001 92.2992 6.7001 87.7992 5.4001 81.5992C4.4001 76.5992 2.7001 71.8992 0.600098 67.3992V215.299H1512.6V63.9992C1509.3 63.6992 1505.8 63.5992 1502.2 63.7992L1501.6 63.8992Z" fill="#09BF5D"/>
</g>
<defs>
<clipPath id="clip0_2001_1294">
<rect width="1512" height="215" fill="white"/>
</clipPath>
</defs>
</svg>
