<svg width="1512" height="432" viewBox="0 0 1512 432" fill="none" xmlns="http://www.w3.org/2000/svg">
<g clip-path="url(#clip0_2001_1342)">
<path d="M1512 432.002V25.9018C1480.5 21.3018 1450.8 29.2018 1432.6 47.9018C1428.8 51.8018 1423.4 58.3018 1419 68.2018C1415.5 76.1018 1406.1 79.5018 1398.3 75.6018C1379 65.9018 1345.6 53.9018 1304.2 59.1018C1258.9 64.8018 1227.7 88.0018 1211.3 103.502C1205.1 109.402 1195.3 109.002 1189.5 102.602C1178.2 90.1018 1157.7 73.1018 1128.8 71.3018C1096.6 69.4018 1065 87.1018 1046.6 116.702C1041.2 125.402 1028.9 126.502 1022.2 118.802C1014.8 110.302 1004.2 101.402 989.7 95.8018C962.8 85.4018 931.7 90.2018 906.7 107.702C900.8 111.802 892.8 111.402 887.5 106.402C859.4 80.2018 822.2 68.6018 787.8 76.8018C766.5 81.9018 751 93.5018 741.3 102.802C736.2 107.702 728.4 108.502 722.4 104.602C711.9 97.7018 695.8 89.9018 675.3 89.1018C639.2 87.7018 612.9 109.202 598.8 124.602C592.8 131.202 582.5 131.202 576.4 124.602C563.3 110.302 545.7 102.602 528.4 104.502C522.8 105.102 517.9 106.602 513.6 108.602C505.7 112.202 496.4 108.202 493.3 100.102C482.9 72.9018 460.1 55.2018 436.8 54.8018C425.2 54.6018 415.2 58.8018 407.7 63.6018C400.4 68.2018 390.6 65.7018 386.4 58.1018C376.6 40.2018 359.1 27.8018 339.3 25.5018C320.6 23.3018 305.6 30.9018 296 37.9018C289.4 42.7018 280.3 41.5018 275.2 35.1018C266.3 23.9018 253.2 11.8018 235 5.30179C194.5 -8.89821 142.7 10.1018 106.8 55.3018C101.4 62.1018 91.3999 63.1018 84.8999 57.3018C72.5999 46.4018 57.1999 41.6018 43.0999 44.7018C39.3999 45.5018 36.0999 46.8018 33.1999 48.4018C25.6999 52.4018 16.4999 49.4018 12.5999 41.9018C9.6999 36.2018 5.5999 30.2018 -0.100098 25.0018V432.002H1511.9H1512Z" fill="#0BA150"/>
</g>
<defs>
<clipPath id="clip0_2001_1342">
<rect width="1512" height="432" fill="white"/>
</clipPath>
</defs>
</svg>
