<svg width="1512" height="285" viewBox="0 0 1512 285" fill="none" xmlns="http://www.w3.org/2000/svg">
<g clip-path="url(#clip0_2001_1347)">
<path d="M-101.993 190.252C-97.0375 187.973 -74.5166 178.267 -47.5683 187.145C-29.5756 193.071 -18.0463 204.503 -11.4965 213.054C-8.02955 217.584 -1.49417 218.21 2.80833 214.468C8.38813 209.615 16.8491 204.373 28.1335 203.267C45.8718 201.526 58.9089 211.135 65.5163 217.589C68.5319 220.533 73.0697 221.211 76.8248 219.311C82.9808 216.194 91.7731 213.011 102.491 212.833C122.928 212.496 138.087 223.293 146.351 231.089C150.097 234.624 155.907 234.658 159.729 231.205C163.619 227.684 169.165 223.904 176.541 221.773C186.98 218.758 196.224 220.446 202.337 222.5C206.543 223.914 211.153 222.375 213.655 218.7C217.895 212.486 224.8 204.777 235.331 199.823C254.092 190.998 277.405 194.186 296.555 207.629C300.401 210.332 305.587 209.985 308.992 206.744C320.636 195.658 340.876 180.027 369.836 172.395C424.007 158.125 469.188 182.24 483.713 191.219C486.071 192.676 488.923 193.066 491.589 192.306C502.83 189.093 518.383 186.164 536.808 187.145C567.843 188.8 591.29 200.718 604.428 209.062C607.497 211.01 611.396 211.106 614.541 209.293C620.02 206.133 628.692 202.516 639.218 203.271C653.744 204.305 667.074 213.318 675.261 227.025C678.281 232.08 684.961 233.451 689.657 229.911C694.498 226.27 701.076 222.538 709.446 220.484C722.118 217.373 733.033 219.532 739.866 221.788C743.731 223.067 747.995 221.797 750.55 218.623C758.396 208.874 773.47 193.811 796.749 187.145C829.008 177.911 864.951 188.271 891.524 213.472C894.818 216.598 899.817 217.026 903.63 214.559C910.189 210.317 919.197 205.772 930.487 203.267C955.265 197.769 976.081 205.431 986.275 210.346C989.267 211.789 992.796 211.621 995.629 209.884C1005.83 203.623 1021 196.355 1040.38 193.576C1080.5 187.828 1112.4 205.113 1126.52 214.511C1130 216.824 1134.56 216.68 1137.89 214.155C1143.59 209.832 1152.48 204.69 1164.14 203.262C1187.45 200.405 1205.06 214.429 1212.91 222.269C1215.73 225.087 1219.96 225.953 1223.64 224.419C1241.94 216.786 1271.34 208.091 1306.25 212.823C1315.29 214.049 1323.52 216.012 1330.85 218.315C1333.86 219.258 1337.13 218.743 1339.66 216.868C1346.71 211.659 1360.7 203.392 1379.64 203.262C1391.88 203.175 1401.82 206.518 1408.47 209.62C1412.15 211.337 1416.47 210.63 1419.42 207.84C1426.37 201.266 1435.86 194.326 1448.21 189.834C1497.25 171.996 1543.96 209.957 1547.39 212.828V284.993H-101.993V190.248V190.252Z" fill="#67EB93"/>
<path d="M1027.73 219.298C1026.2 201.344 1025.76 179.202 1028.48 154.106C1031.27 128.385 1036.65 106.392 1042.16 88.9141C1046.86 90.3713 1051.55 91.8286 1056.24 93.2859C1050.71 110.297 1044.61 136.215 1045.95 167.904C1046.82 188.465 1050.59 205.904 1054.58 219.298H1027.73Z" fill="#67EB93"/>
<path d="M1028.29 155.924C1027.42 154.005 1010.1 116.949 983.385 116.67C979.99 116.636 968.945 116.516 962.213 124.374C958.535 128.669 955.601 135.98 957.325 142.746C961.44 158.945 988.258 156.424 1010.22 177.778C1019.35 186.657 1024.21 196.323 1026.71 202.297C1028.65 197.107 1030.95 189.162 1031.29 179.24C1031.62 169.323 1029.88 161.239 1028.29 155.929V155.924Z" fill="#67EB93"/>
<path d="M1008.41 56.2913C990.606 61.9664 978.856 71.3929 978.962 80.9781C978.966 81.4398 979.029 84.1427 980.517 86.6581C988.897 100.807 1031.1 89.6687 1033.88 88.9136C1034.27 95.9114 1038.5 101.89 1044.32 103.828C1052 106.396 1061.66 101.644 1064.81 92.2082C1078.28 109.436 1095.35 115.582 1104.44 110.138C1110.1 106.752 1111.52 99.581 1111.75 98.2295C1113.7 87.1678 1105.87 74.5671 1091.6 67.8964C1107.29 57.6764 1115.45 43.1615 1112.23 31.7824C1111.85 30.4406 1109.73 23.539 1103.89 21.2353C1095.56 17.9553 1082.5 25.1454 1073.36 40.93C1075.31 21.2594 1069.41 5.39785 1059.16 1.50702C1058.28 1.17516 1053.46 -0.556232 1048.47 1.50702C1039.73 5.1189 1034.83 18.5613 1037.66 35.1105C1024.49 21.697 1007.78 21.8077 1002.48 28.1705C997.963 33.5908 999.759 45.9077 1008.39 56.2817L1008.41 56.2913Z" fill="#FF7E52"/>
<path d="M1072.61 60.713C1073.13 54.0928 1064.91 48.0504 1054.27 47.217C1043.63 46.3835 1034.58 51.0746 1034.06 57.6949C1033.54 64.3151 1041.75 70.3575 1052.4 71.191C1063.04 72.0244 1072.09 67.3333 1072.61 60.713Z" fill="#EBC1FF"/>
<path d="M79.2064 112.603C81.4921 132.038 82.851 154.763 81.9194 180.079C81.1223 201.808 78.7838 221.431 75.8354 238.552H114.971C110.217 222.311 105.814 202.919 103.221 180.839C99.8113 151.805 100.493 126.247 102.491 105.73C94.7309 108.02 86.9663 110.309 79.2064 112.598V112.603Z" fill="#67EB93"/>
<path d="M98.7683 124.084C136.403 114.581 162.654 89.9625 157.402 69.0977C152.15 48.2329 117.384 39.0223 79.7491 48.5253C42.1145 58.0283 15.8631 82.6462 21.1151 103.512C26.3671 124.376 61.1336 133.587 98.7683 124.084Z" fill="#EBC1FF"/>
<path d="M99.1724 200.872C100.579 196.38 115.441 150.094 136.373 143.51C139.167 142.63 145.309 140.696 150.913 143.611C157.712 147.146 159.398 155.577 159.748 157.342C162.553 171.371 151.782 184.198 144.69 192.643C138.452 200.073 126.337 212.232 105.823 221.023L99.1724 200.877V200.872Z" fill="#67EB93"/>
<path d="M378.917 93.848L390.845 71.2148L418.129 77.1834L378.917 93.848Z" fill="#FF7E52"/>
<path d="M451.608 62.9535L427.065 55.8164L412.396 79.6182L451.608 62.9535Z" fill="#FF7E52"/>
<path d="M391.21 61.7863C392.333 69.2698 396.04 76.2242 401.61 81.3318C402.124 81.8032 402.888 81.0385 402.374 80.5671C396.929 75.5701 393.351 68.8128 392.251 61.4976C392.151 60.8099 391.109 61.1034 391.21 61.7863Z" fill="#2C2E2A"/>
<path d="M417.193 50.3299C422.297 55.9569 425.058 63.3634 424.972 70.9575C424.962 71.6549 426.042 71.6549 426.052 70.9575C426.139 63.0749 423.253 55.399 417.956 49.5652C417.486 49.0506 416.727 49.8153 417.193 50.3299Z" fill="#2C2E2A"/>
<path d="M391.684 63.9201C396.081 62.9583 399.262 60.4221 398.79 58.2553C398.317 56.0884 394.37 55.1116 389.973 56.0733C385.576 57.0351 382.395 59.5714 382.867 61.7382C383.34 63.905 387.287 64.8819 391.684 63.9201Z" fill="#769FF3"/>
<path d="M418.972 52.1013C422.387 49.1656 423.986 45.4213 422.544 43.7383C421.102 42.0553 417.164 43.0709 413.749 46.0067C410.334 48.9425 408.735 52.6867 410.177 54.3697C411.619 56.0527 415.557 55.0371 418.972 52.1013Z" fill="#769FF3"/>
<path d="M419.349 129.12C421.61 136.459 423.747 144.625 425.514 153.552C427.704 164.618 428.933 174.858 429.562 184C438.729 186.29 447.896 188.579 457.063 190.868C457.312 180.47 456.462 165.97 451.603 149.55C448.357 138.59 444.136 129.514 440.198 122.449C433.245 124.671 426.297 126.893 419.344 129.115L419.349 129.12Z" fill="#67EB93"/>
<path d="M371.56 79.4114C367.436 101.617 376.939 123.452 394.552 133.676C418.196 147.398 451.877 137.524 463.805 111.587C473.798 89.8575 465.903 62.5399 444.391 48.4531C440.42 54.9458 436.448 61.4338 432.472 67.9265C424.746 66.4067 417.02 64.8869 409.294 63.3671C405.111 69.9512 400.924 76.5306 396.742 83.1099C388.348 81.8738 379.949 80.6427 371.556 79.4066L371.56 79.4114Z" fill="#FBBF49"/>
<path d="M109.401 202.515C117.151 191.217 125.309 180.209 133.876 169.522C136.277 166.526 138.712 163.554 141.175 160.605C141.617 160.076 140.858 159.307 140.411 159.841C131.533 170.465 123.048 181.416 114.985 192.67C112.781 195.748 110.611 198.845 108.469 201.967C108.075 202.544 109.012 203.082 109.401 202.515Z" fill="#2C2E2A"/>
<path d="M86.553 178.886C85.6742 176.072 76.3682 147.095 63.259 142.969C61.5063 142.416 57.66 141.209 54.1546 143.031C49.9001 145.244 48.8437 150.524 48.6228 151.626C46.8701 160.408 53.612 168.44 58.0537 173.73C61.9625 178.381 69.5447 185.994 82.3898 191.501L86.553 178.886Z" fill="#67EB93"/>
<path d="M80.9111 179.47C76.0372 172.361 70.8991 165.436 65.5114 158.707C63.9892 156.803 62.443 154.918 60.8824 153.052C60.4358 152.518 59.6771 153.287 60.1189 153.816C65.6555 160.439 70.9423 167.268 75.9651 174.285C77.3241 176.18 78.659 178.094 79.9795 180.013C80.3685 180.586 81.3096 180.042 80.9111 179.465V179.47Z" fill="#2C2E2A"/>
<mask id="mask0_2001_1347" style="mask-type:luminance" maskUnits="userSpaceOnUse" x="20" y="44" width="139" height="84">
<path d="M98.7683 124.084C136.403 114.581 162.654 89.9624 157.402 69.0976C152.15 48.2328 117.384 39.0223 79.7491 48.5253C42.1145 58.0282 15.8631 82.6461 21.1151 103.511C26.3671 124.376 61.1336 133.587 98.7683 124.084Z" fill="white"/>
</mask>
<g mask="url(#mask0_2001_1347)">
<path d="M25.1941 77.852C34.2649 78.1598 43.3309 78.4628 52.4017 78.7706C61.4724 79.0784 70.5384 79.3814 79.6092 79.6892C88.7184 79.997 97.8276 80.3048 106.937 80.6126C116.008 80.9204 125.074 81.2234 134.144 81.5312C143.215 81.839 152.281 82.142 161.352 82.4498C162.471 82.4883 163.59 82.5268 164.708 82.5653C165.405 82.5893 165.405 81.5072 164.708 81.4831C155.638 81.1753 146.572 80.8723 137.501 80.5645C128.43 80.2567 119.364 79.9538 110.293 79.646C101.184 79.3382 92.0749 79.0303 82.9657 78.7225C73.8949 78.4147 64.829 78.1117 55.7582 77.8039C46.6874 77.4961 37.6214 77.1931 28.5506 76.8853C27.4318 76.8468 26.3129 76.8084 25.1941 76.7699C24.4978 76.7458 24.4978 77.828 25.1941 77.852Z" fill="#2C2E2A"/>
<path d="M108.411 35.6826C103.071 48.7306 97.7313 61.7786 92.3916 74.8266C87.0519 87.8746 81.7122 100.923 76.3725 113.97C73.3713 121.31 70.3653 128.649 67.3641 135.988C67.1 136.632 68.1468 136.911 68.4061 136.277C73.7459 123.229 79.0856 110.181 84.4253 97.1328C89.765 84.0848 95.1047 71.0368 100.444 57.9888C103.446 50.6496 106.452 43.3104 109.453 35.9712C109.717 35.3267 108.67 35.0478 108.411 35.6826Z" fill="#2C2E2A"/>
<path d="M18.9612 118.673C27.8591 113.921 36.757 109.164 45.6501 104.413C54.5096 99.6803 63.3739 94.943 72.2334 90.2105C81.0929 85.478 89.9572 80.7407 98.8167 76.0083C107.676 71.2758 116.613 66.5 125.506 61.7483C134.399 56.9965 143.229 52.2785 152.089 47.546C153.184 46.9592 154.279 46.3774 155.373 45.7906C155.988 45.4636 155.441 44.5305 154.826 44.8575C145.928 49.6093 137.03 54.3658 128.137 59.1175C119.278 63.85 110.413 68.5873 101.554 73.3198C92.6943 78.0523 83.83 82.7896 74.9705 87.5221C66.0726 92.2738 57.1747 97.0303 48.2816 101.782C39.3884 106.534 30.5578 111.252 21.6983 115.984C20.6034 116.571 19.5086 117.153 18.4137 117.74C17.7991 118.067 18.3465 119 18.9612 118.673Z" fill="#2C2E2A"/>
<path d="M65.6068 47.3132C72.8529 56.7589 80.099 66.2095 87.345 75.6552C94.5911 85.1009 101.837 94.5515 109.083 103.997C113.17 109.321 117.251 114.65 121.338 119.974C121.755 120.518 122.697 119.979 122.269 119.426C115.023 109.98 107.777 100.53 100.531 91.0838C93.285 81.6381 86.0389 72.1876 78.7928 62.7419C74.7064 57.4178 70.6248 52.089 66.5384 46.7649C66.1207 46.2215 65.1795 46.7601 65.6068 47.3132Z" fill="#2C2E2A"/>
</g>
<path d="M92.3706 96.6917C106.684 93.0775 116.668 83.7148 114.67 75.7794C112.673 67.844 99.4504 64.341 85.1371 67.9551C70.8239 71.5693 60.84 80.9321 62.8374 88.8675C64.8349 96.8029 78.0573 100.306 92.3706 96.6917Z" fill="#FBBF49"/>
<path d="M1021.81 169.576C1018.38 164.146 1014.44 159.029 1010.02 154.369C1004.19 148.213 997.516 142.85 990.222 138.526C985.867 135.944 981.291 133.746 976.57 131.913C975.922 131.663 975.639 132.707 976.282 132.957C984.609 136.184 992.46 140.642 999.471 146.183C1005.35 150.829 1010.64 156.206 1015.26 162.117C1017.27 164.69 1019.13 167.369 1020.88 170.124C1021.25 170.711 1022.18 170.168 1021.81 169.576Z" fill="#2C2E2A"/>
<path d="M1047.96 192.799C1048.58 197.734 1050.7 202.351 1054.05 206.025C1054.52 206.54 1055.28 205.775 1054.81 205.26C1051.67 201.812 1049.63 197.431 1049.04 192.799C1048.95 192.116 1047.87 192.111 1047.96 192.799Z" fill="#2C2E2A"/>
<path d="M1023.79 197.224C1024.91 201.211 1025.28 205.367 1024.87 209.488C1024.81 210.181 1025.89 210.176 1025.95 209.488C1026.36 205.275 1025.98 201.009 1024.83 196.936C1024.64 196.267 1023.6 196.551 1023.79 197.224Z" fill="#2C2E2A"/>
<path d="M427.656 170.379C428.862 180.06 428.828 189.896 427.493 199.563C427.162 201.977 426.744 204.377 426.259 206.762C426.12 207.441 427.162 207.734 427.301 207.051C429.246 197.538 429.98 187.784 429.438 178.084C429.294 175.511 429.058 172.938 428.741 170.379C428.655 169.696 427.575 169.686 427.661 170.379H427.656Z" fill="#2C2E2A"/>
<path d="M456.242 178.248C456.458 182.908 456.458 187.573 456.242 192.234C456.208 192.931 457.289 192.926 457.322 192.234C457.538 187.573 457.538 182.908 457.322 178.248C457.289 177.555 456.208 177.55 456.242 178.248Z" fill="#2C2E2A"/>
<path d="M78.2938 218.336C77.7416 225.035 76.2674 231.634 73.9385 237.939C73.6984 238.593 74.7404 238.877 74.9805 238.228C77.3478 231.831 78.8172 225.136 79.3742 218.336C79.4319 217.643 78.3514 217.643 78.2938 218.336Z" fill="#2C2E2A"/>
<path d="M1471.56 102.888C1469.78 118.038 1468.72 135.756 1469.45 155.489C1470.07 172.428 1471.89 187.726 1474.19 201.073C1464.02 201.073 1453.85 201.073 1443.68 201.073C1447.39 188.409 1450.83 173.298 1452.85 156.085C1455.5 133.452 1454.97 113.526 1453.41 97.5352C1459.46 99.3195 1465.51 101.104 1471.56 102.888Z" fill="#67EB93"/>
<path d="M1516.69 95.6912C1520.78 79.4263 1500.32 60.2361 1470.98 52.8285C1441.64 45.4209 1414.54 52.6012 1410.45 68.866C1406.36 85.1308 1426.82 104.321 1456.15 111.729C1485.49 119.137 1512.59 111.956 1516.69 95.6912Z" fill="#FBBF49"/>
<path d="M1456 171.699C1454.9 168.197 1443.31 132.117 1427 126.981C1424.82 126.293 1420.03 124.787 1415.67 127.057C1410.36 129.813 1409.05 136.383 1408.78 137.758C1406.59 148.695 1414.99 158.694 1420.52 165.278C1425.38 171.069 1434.83 180.548 1450.82 187.401C1452.54 182.164 1454.27 176.931 1456 171.694V171.699Z" fill="#67EB93"/>
<path d="M1448.86 172.493C1442.8 163.662 1436.42 155.058 1429.73 146.704C1427.82 144.324 1425.89 141.967 1423.94 139.63C1423.49 139.096 1422.73 139.865 1423.17 140.394C1430.07 148.652 1436.66 157.165 1442.93 165.913C1444.61 168.27 1446.28 170.646 1447.92 173.041C1448.31 173.613 1449.25 173.07 1448.85 172.493H1448.86Z" fill="#2C2E2A"/>
<mask id="mask1_2001_1347" style="mask-type:luminance" maskUnits="userSpaceOnUse" x="1409" y="49" width="109" height="66">
<path d="M1516.69 95.6912C1520.78 79.4263 1500.32 60.2361 1470.98 52.8285C1441.64 45.4209 1414.54 52.6012 1410.45 68.866C1406.36 85.1308 1426.82 104.321 1456.15 111.729C1485.49 119.137 1512.59 111.956 1516.69 95.6912Z" fill="white"/>
</mask>
<g mask="url(#mask1_2001_1347)">
<path d="M1513.67 74.8363C1499.54 75.3124 1485.4 75.7933 1471.27 76.2695C1457.14 76.7456 1443 77.2265 1428.87 77.7027C1420.88 77.972 1412.9 78.2413 1404.91 78.5106C1404.22 78.5347 1404.21 79.6168 1404.91 79.5928C1419.04 79.1166 1433.18 78.6357 1447.31 78.1596C1461.44 77.6834 1475.58 77.2025 1489.71 76.7264C1497.7 76.457 1505.68 76.1877 1513.67 75.9184C1514.36 75.8944 1514.36 74.8122 1513.67 74.8363Z" fill="#2C2E2A"/>
<path d="M1447.87 43.186C1452.04 53.3675 1456.2 63.5492 1460.37 73.7307C1464.52 83.8738 1468.67 94.0169 1472.82 104.165C1475.17 109.903 1477.51 115.64 1479.86 121.383C1480.12 122.017 1481.17 121.738 1480.9 121.094C1476.74 110.912 1472.57 100.731 1468.41 90.5493C1464.26 80.4062 1460.1 70.2631 1455.95 60.1152C1453.61 54.3776 1451.26 48.6399 1448.91 42.8975C1448.65 42.2626 1447.6 42.5416 1447.87 43.186Z" fill="#2C2E2A"/>
<path d="M1519.01 106.789C1505.13 99.3724 1491.25 91.9563 1477.36 84.5353C1463.47 77.1143 1449.74 69.7751 1435.92 62.3975C1428.17 58.2565 1420.42 54.1156 1412.66 49.9747C1412.05 49.6477 1411.5 50.5807 1412.12 50.9078C1426 58.3239 1439.88 65.74 1453.77 73.161C1467.66 80.5819 1481.39 87.9211 1495.21 95.2988C1502.96 99.4397 1510.71 103.581 1518.46 107.722C1519.08 108.049 1519.63 107.116 1519.01 106.789Z" fill="#2C2E2A"/>
<path d="M1481.34 51.5071C1475.7 58.8559 1470.06 66.2047 1464.42 73.5583C1458.79 80.9119 1453.1 88.3233 1447.44 95.7009C1444.26 99.8515 1441.07 104.002 1437.89 108.153C1437.47 108.706 1438.4 109.244 1438.82 108.701C1444.46 101.352 1450.1 94.0032 1455.73 86.6496C1461.39 79.2671 1467.06 71.8846 1472.72 64.5069C1475.9 60.3564 1479.08 56.2059 1482.27 52.0553C1482.69 51.5023 1481.75 50.9636 1481.34 51.5071Z" fill="#2C2E2A"/>
</g>
<path d="M1484.16 84.2726C1485.71 78.086 1477.93 70.7868 1466.77 67.9694C1455.62 65.1519 1445.31 67.8831 1443.75 74.0697C1442.19 80.2562 1449.98 87.5554 1461.13 90.3729C1472.29 93.1903 1482.6 90.4591 1484.16 84.2726Z" fill="#769FF3"/>
<path d="M1471.31 185.316C1471.75 190.626 1472.89 195.854 1474.74 200.856C1474.98 201.505 1476.02 201.221 1475.78 200.567C1473.97 195.661 1472.82 190.53 1472.39 185.316C1472.33 184.629 1471.25 184.619 1471.31 185.316Z" fill="#2C2E2A"/>
</g>
<defs>
<clipPath id="clip0_2001_1347">
<rect width="1512" height="285" fill="white"/>
</clipPath>
</defs>
</svg>
