<svg width="247" height="58" viewBox="0 0 247 58" fill="none" xmlns="http://www.w3.org/2000/svg">
<g clip-path="url(#clip0_2001_1338)">
<path d="M246.984 43.8293C247.109 46.0224 245.932 47.7201 245.5 48.3502C238.24 58.8732 209.37 45.9695 172.775 47.7249C140.967 49.2495 141.457 60.0179 115.902 57.1611C95.8296 54.9151 89.2078 47.5614 67.6617 49.1726C54.6822 50.1441 52.5405 53.15 37.2561 53.6502C20.387 54.2033 0.56957 51.2743 0.0509652 46.2581C-0.217941 43.6465 4.9777 42.8097 13.9669 36.014C27.3065 25.9286 26.2357 19.936 34.7063 15.444C45.6402 9.64861 50.6726 17.3101 68.2571 15.444C87.5176 13.4 88.4539 1.41968 104.516 0.645361C122.062 -0.19629 123.729 13.9771 143.834 16.8243C167.709 20.2054 175.421 1.96315 195.339 8.22503C207.623 12.0871 204.492 18.979 224.804 28.9297C235.344 34.095 246.619 37.351 246.984 43.8293Z" fill="white"/>
</g>
<defs>
<clipPath id="clip0_2001_1338">
<rect width="247" height="58" fill="white"/>
</clipPath>
</defs>
</svg>
