<svg width="301" height="73" viewBox="0 0 301 73" fill="none" xmlns="http://www.w3.org/2000/svg">
<g clip-path="url(#clip0_2001_1296)">
<path d="M0 29.4895C19.3714 43.885 48.0584 60.6313 85.3764 68.341C197.932 91.582 288.414 11.9232 300.951 0.503906C293.567 5.83439 281.706 12.6998 266.618 13.413C248.286 14.298 236.899 5.57271 227.997 11.7006C224.072 14.4117 219.622 20.7016 220.38 37.5729C206.521 23.4215 188.265 22.5681 180.324 30.4511C173.86 36.8872 175.428 47.9601 175.789 50.1703C149.917 19.3272 117.543 12.0366 103.326 23.276C93.7007 30.8685 93.2471 46.2725 93.7076 54.3156C87.8111 40.1671 74.5526 33.4916 64.8789 36.6887C57.2621 39.1933 53.8449 47.1516 53.0305 49.173C51.0722 44.2426 47.6409 38.226 41.5251 35.8244C36.0599 33.6656 31.8106 35.7283 24.9282 36.0771C18.937 36.3325 10.4838 35.3329 0 29.4895Z" fill="white"/>
</g>
<defs>
<clipPath id="clip0_2001_1296">
<rect width="301" height="73" fill="white"/>
</clipPath>
</defs>
</svg>
